
<svg width="280px" height="366px" viewBox="0 0 280 366" version="1.1" xmlns="http://www.w3.org/2000/svg" xmlns:xlink="http://www.w3.org/1999/xlink">
    <g id="Underwritings" stroke="none" stroke-width="1" fill="none" fill-rule="evenodd">
        <g id="Analysis-results-—-Empty" transform="translate(-48.000000, -142.000000)">
            <path d="M146.196883,398.22282 C146.503359,396.496337 146.662272,394.738073 146.662272,392.967322 L146.662272,347.381835 L146.662272,290.070798 L146.662272,281.512168 C169.250698,268.57093 205.880272,268.57093 228.468698,281.512168 L228.468698,290.070798 L228.468698,347.381835 L228.468698,392.967322 C228.468698,394.738073 228.627611,396.496337 228.934087,398.22282 C213.905406,406.656589 192.792606,409.549951 173.586768,406.905175 C172.758147,406.781449 171.918176,406.656589 171.089555,406.520377 C170.272285,406.38303 169.466367,406.236603 168.660448,406.077689 C160.533155,404.465852 152.905305,401.821076 146.423902,398.143363 C146.412551,398.198983 146.4012,398.268224 146.389849,398.324978 C146.321743,398.290925 146.253637,398.255737 146.196883,398.22282" id="Roof"  stroke="#C9C9C9" fill="#FFFFFF" stroke-linejoin="round" transform="translate(187.565485, 339.829328) rotate(180.000000) translate(-187.565485, -339.829328) "></path>
            <path d="M279.593457,233.388552 C279.423192,234.273927 279.343736,235.147952 279.343736,236.021976 L255.869934,227.882197 C258.435253,224.024003 259.933581,219.381457 259.933581,214.398382 C259.933581,205.363012 255.029963,197.474089 247.73129,193.261745 L247.73129,183.103764 L247.742641,183.024307 C248.094521,183.081062 248.457752,183.103764 248.832334,183.103764 L282.113372,183.103764 L294.565384,238.665617 L283.293873,231.742661 C281.829598,230.845935 279.911284,231.697258 279.593457,233.388552" id="Fender-Front-Right" stroke="#C9C9C9" fill="#FAFAFA" stroke-linejoin="round" transform="translate(271.148337, 210.844962) rotate(180.000000) translate(-271.148337, -210.844962) "></path>
            <path d="M120.294201,227.178778 L96.922558,235.284504 C96.922558,234.409344 96.8431012,233.536455 96.6728367,232.649944 C96.3550096,230.95865 94.4366961,230.107327 92.9724212,231.004054 L81.4398378,238.087058 C81.1447127,238.291375 80.8609385,238.484342 80.5658133,238.665957 C80.8609385,238.472991 81.1560636,238.280024 81.4398378,238.076842 L93.8123928,182.898652 C93.8804986,182.853248 93.9372535,182.819195 94.0053593,182.786277 L93.9599554,182.786277 L93.8577967,182.660282 L93.9259025,182.387859 C93.9372535,182.376508 93.9486044,182.376508 93.9599554,182.366292 L127.32045,182.366292 C127.695032,182.366292 128.058263,182.342455 128.410143,182.2857 L128.421494,182.366292 L128.421494,192.524273 C121.122822,196.736617 116.207852,204.624405 116.207852,213.659775 C116.207852,218.654201 117.70618,223.308098 120.294201,227.178778" id="Fender-Front-Left" stroke="#C9C9C9" fill="#FAFAFA" stroke-linejoin="round" transform="translate(104.493654, 210.475829) rotate(180.000000) translate(-104.493654, -210.475829) "></path>
            <path d="M286.438318,143.034053 C290.819791,149.606263 298.288728,153.932117 306.779252,153.932117 C297.709829,169.810986 281.88658,181.207358 263.327747,185.340245 C240.080965,190.515152 214.041845,193.341543 187.753003,193.806932 L187.378421,193.806932 C161.078228,193.341543 135.050459,190.515152 111.803677,185.340245 C93.2448444,181.207358 77.4215952,169.810986 68.3521719,153.932117 C76.8540468,153.932117 84.3343347,149.584696 88.7044573,143 L112.178259,151.139779 C112.178259,157.008229 115.82192,162.399939 121.497403,164.498733 L134.11968,169.15263 C137.774691,170.503395 141.838338,170.117462 145.175522,168.120827 L150.011035,165.213844 C173.64375,173.31957 201.55578,173.307084 225.165793,165.16844 L230.069411,168.120827 C233.406596,170.117462 237.470242,170.503395 241.125254,169.15263 L253.74753,164.498733 C259.423014,162.399939 263.066675,157.008229 263.066675,151.139779 L286.438318,143.034053 Z" id="Bumper-Front" stroke="#C9C9C9" fill="#FAFAFA" stroke-linejoin="round" transform="translate(187.565712, 168.403466) rotate(180.000000) translate(-187.565712, -168.403466) "></path>
            <path d="M260.183642,166.057713 L247.811087,221.234768 C247.527313,221.439085 247.232188,221.632052 246.937063,221.825018 C246.573832,222.086091 246.221952,222.335812 245.84737,222.562831 C245.484139,222.801202 245.109557,223.039572 244.746326,223.266591 C244.178778,223.640038 243.599878,223.993053 243.009628,224.333582 C242.544238,224.617356 242.067498,224.901131 241.590757,225.162203 C241.363738,225.309766 241.136718,225.434626 240.909699,225.548136 C240.501064,225.786506 240.092429,226.013526 239.683794,226.229194 C239.116246,226.547021 238.548698,226.842146 237.969798,227.12592 C237.504409,227.375642 237.027668,227.612877 236.550927,227.841031 C235.869869,228.180425 235.17746,228.510738 234.485051,228.828566 C234.258032,228.942075 234.019661,229.044234 233.792642,229.146393 C233.191041,229.418816 232.578089,229.679888 231.965136,229.94096 C231.624607,230.088523 231.284078,230.236086 230.943549,230.372297 C229.990068,230.769581 229.013885,231.155514 228.037701,231.518745 C227.163677,231.847923 226.278301,232.16575 225.392926,232.472226 C201.782913,240.61087 173.870883,240.622221 150.238168,232.51763 L150.306273,232.472226 C142.213033,229.679888 134.630587,225.94542 127.888112,221.246119 L127.62704,221.08607 L115.175028,165.524218 C129.068613,173.549352 145.958853,178.782148 163.768521,181.233957 C163.791223,181.245308 163.802574,181.245308 163.825276,181.245308 C197.265228,185.990013 233.962907,180.950183 260.183642,166.057713" id="Hood" stroke="#C9C9C9" fill="#FAFAFA" stroke-linejoin="round" transform="translate(187.679335, 202.055189) rotate(180.000000) translate(-187.679335, -202.055189) "></path>
            <path d="M269.911422,332.277276 L236.630384,332.277276 C236.255802,332.277276 235.892571,332.254574 235.540691,332.197819 C231.545151,331.664324 228.469038,328.247682 228.469038,324.11593 L228.469038,238.586387 L301.626026,238.586387 L301.626026,284.173009 C301.626026,285.942625 301.467113,287.702025 301.160636,289.427372 C300.229857,294.728274 297.891558,299.7227 294.350056,303.854452 L287.70974,311.618514 L270.058984,332.050256 L269.945475,332.050256 C270.00223,332.084309 270.070335,332.118362 270.12709,332.152415 L270.024932,332.277276 L269.911422,332.277276 Z" id="Door-Front-Right" stroke="#C9C9C9" fill="#FAFAFA" stroke-linejoin="round" transform="translate(265.047532, 285.431831) rotate(180.000000) translate(-265.047532, -285.431831) "></path>
            <path d="M301.626026,357.305706 L301.626026,414.616743 L228.469038,414.616743 L228.469038,360.119611 C228.469038,353.435026 233.009425,344.602838 240.648627,338.688983 C245.586298,334.876193 251.806628,332.276822 258.935036,332.276822 L269.491436,332.276822 L301.626026,357.305706 Z" id="Door-Back-Right" stroke="#C9C9C9" fill="#FAFAFA" stroke-linejoin="round" transform="translate(265.047532, 373.446782) rotate(180.000000) translate(-265.047532, -373.446782) "></path>
            <path d="M306.654618,239.937266 L306.779479,240.084828 C299.140278,245.998682 294.599891,254.829735 294.599891,261.515456 L294.599891,316.012587 L294.599891,401.540995 C294.599891,405.672748 297.676003,409.090524 301.671544,409.622884 L301.660193,409.703476 L301.660193,419.861457 C298.073287,417.772879 293.896131,416.581028 289.446551,416.581028 L289.446551,235.521739 C296.166324,235.521739 302.250443,232.809993 306.654618,228.427384 L306.654618,239.937266 Z" id="Side-Skirt-Right" stroke="#C9C9C9" fill="#FAFAFA" stroke-linejoin="round" transform="translate(298.113015, 324.144421) rotate(180.000000) translate(-298.113015, -324.144421) "></path>
            <path d="M240.818891,398.895993 C254.576264,393.742653 271.727577,390.632488 289.571298,389.588199 L289.571298,389.59955 C271.784332,390.65519 254.701125,393.754004 241.000507,398.895993 L241.000507,440.224867 L240.989156,440.224867 L241.000507,440.247569 L241.000507,440.338376 L262.555995,478.216556 L262.555995,486.775186 L230.421405,461.746302 L219.865005,461.746302 C212.736597,461.746302 206.516266,464.345673 201.578595,468.159599 L201.453735,468.012036 L201.453735,456.502155 C205.903314,452.075277 208.661599,445.945755 208.661599,439.180578 C208.661599,434.038589 207.072464,429.271183 204.370933,425.343748 L209.342657,414.321958 C212.396068,407.556781 218.105605,402.346687 225.131854,399.940282 L239.116246,395.150173 L239.479477,395.025313 L240.818891,398.895993 Z" id="Fender-Back-Right" stroke="#C9C9C9" fill="#FAFAFA" stroke-linejoin="round" transform="translate(245.512516, 438.181693) rotate(180.000000) translate(-245.512516, -438.181693) "></path>
            <path d="M250.024526,445.843482 L250.024526,487.172356 C215.528935,474.232253 159.614067,474.232253 125.107125,487.172356 L125.107125,445.843482 C138.807743,440.701494 155.89095,437.60268 173.677916,436.54704 C182.8722,436.002193 192.259451,436.002193 201.465086,436.54704 C219.240701,437.60268 236.323908,440.701494 250.024526,445.843482" id="Trunk-Lid" stroke="#C9C9C9" fill="#FAFAFA" stroke-linejoin="round" transform="translate(187.565825, 461.655381) rotate(180.000000) translate(-187.565825, -461.655381) "></path>
            <path d="M123.222751,476.435452 L109.238358,481.22556 C102.212109,483.631965 96.5025722,488.842059 93.4491619,495.607236 L88.4774379,506.629026 C84.0732624,500.238431 76.6951333,496.048789 68.3521719,496.048789 C77.4215952,472.655579 81.8938766,465.843661 100.452709,459.748191 C123.699491,452.121476 161.486863,451.371177 187.775705,450.679903 C214.064546,451.371177 251.431933,452.121476 274.678715,459.748191 C293.237547,465.843661 297.709829,472.655579 306.779252,496.048789 C298.288728,496.048789 290.797089,500.385994 286.415616,506.96842 L281.296329,495.607236 C278.242919,488.842059 272.522031,483.631965 265.507133,481.22556 L251.511389,476.435452 L252.260553,474.288983 C252.964313,472.25716 251.74976,470.056208 249.649831,469.579467 L229.796988,465.026594 C219.978401,462.780237 209.671722,464.833627 201.476323,470.680511 L201.464972,470.873477 L201.464972,470.883693 C192.259337,470.339982 182.872087,470.339982 173.677803,470.883693 L173.677803,470.873477 L173.666452,470.680511 C165.471053,464.833627 155.164374,462.780237 145.345787,465.026594 L125.492944,469.579467 C123.393015,470.056208 122.178462,472.25716 122.882222,474.288983 L123.585982,476.310591 L123.222751,476.435452 Z" id="Bumper-Back" stroke="#C9C9C9" fill="#FAFAFA" stroke-linejoin="round" transform="translate(187.565712, 478.824161) rotate(180.000000) translate(-187.565712, -478.824161) "></path>
            <path d="M85.6852133,235.511183 L85.6852133,416.570471 C81.2356339,416.570471 77.0698287,417.762323 73.4715719,419.849766 L73.4715719,409.691785 L73.4602209,409.612328 C77.4557616,409.090183 80.5318739,405.661056 80.5318739,401.530439 L80.5318739,316.000896 L80.5318739,261.503764 C80.5318739,254.819179 75.9914868,245.986991 68.3522854,240.074272 L68.477146,239.926709 L68.477146,228.428179 C72.8926725,232.798301 78.9767913,235.511183 85.6852133,235.511183" id="Side-Skirt-Left" stroke="#C9C9C9" fill="#FAFAFA" stroke-linejoin="round" transform="translate(77.018749, 324.138972) rotate(180.000000) translate(-77.018749, -324.138972) "></path>
            <path d="M85.5601257,389.587745 C103.403847,390.632034 120.55516,393.743334 134.312533,398.896674 L135.606543,395.150854 L149.602286,399.940963 C156.617185,402.347368 162.338072,407.557462 165.391483,414.322639 L170.510769,425.683823 C167.94545,429.544287 166.447123,434.186833 166.447123,439.181259 C166.447123,445.957787 169.205408,452.087309 173.666338,456.502836 L173.666338,456.513052 L173.666338,468.011582 L173.541478,468.159145 C168.603807,464.346355 162.383476,461.746983 155.255068,461.746983 L144.698668,461.746983 L112.564078,486.775867 L112.564078,478.217237 L134.119566,440.337922 L134.119566,440.225548 L134.119566,398.896674 C120.418948,393.75355 103.335741,390.655871 85.5601257,389.599096 L85.5601257,389.587745 Z" id="Fender-Back-Left" stroke="#C9C9C9" fill="#FAFAFA" stroke-linejoin="round" transform="translate(129.613232, 438.181806) rotate(180.000000) translate(-129.613232, -438.181806) "></path>
            <path d="M73.9710145,289.426918 C73.6645384,287.700436 73.5056248,285.942171 73.5056248,284.17142 L73.5056248,238.585933 L146.662613,238.585933 L146.662613,324.115476 C146.662613,328.246093 143.5865,331.67522 139.59096,332.197365 C139.23908,332.252985 138.875849,332.276822 138.501267,332.276822 L105.140772,332.276822 L105.106719,332.276822 L80.7815952,303.853998 C79.6692004,302.558853 78.6816662,301.17517 77.8189926,299.721111 C77.7054829,299.54063 77.6033242,299.359015 77.5011655,299.166048 C75.8893281,296.225013 74.7655822,293.025175 74.2093848,289.698206 C74.15263,289.733394 74.0958751,289.756096 74.0391203,289.789014 C74.0164184,289.676639 73.9937164,289.550644 73.9710145,289.426918 L73.9710145,289.426918 Z" id="Door-Front-Left" stroke="#C9C9C9" fill="#FAFAFA" stroke-linejoin="round" transform="translate(110.084119, 285.431377) rotate(180.000000) translate(-110.084119, -285.431377) "></path>
            <path d="M146.662613,414.616743 L73.5056248,414.616743 L73.5056248,357.305706 L105.640215,332.276822 L116.196615,332.276822 C123.325023,332.276822 129.545353,334.876193 134.483024,338.688983 C142.122226,344.602838 146.662613,353.435026 146.662613,360.119611 L146.662613,414.616743 Z" id="Door-Back-Left" stroke="#C9C9C9" fill="#FAFAFA" stroke-linejoin="round" transform="translate(110.084119, 373.446782) rotate(180.000000) translate(-110.084119, -373.446782) "></path>
            <polygon id="Window-Back-Left" stroke="#C9C9C9" fill="#E5E5E5" stroke-linejoin="round" transform="translate(127.547583, 373.446782) rotate(180.000000) translate(-127.547583, -373.446782) " points="142.122226 336.817209 142.122226 410.076356 112.97294 410.076356 112.97294 359.519145"></polygon>
            <path d="M68.3636364,416.830862 C79.6010946,416.830862 88.7159218,425.935474 88.7159218,437.184283 C88.7159218,448.420606 79.6010946,457.535433 68.3636364,457.535433 C57.1148272,457.535433 48,448.420606 48,437.184283 C48,425.935474 57.1148272,416.830862 68.3636364,416.830862" id="Wheel-Rear-Left" fill="#B0B0B0" transform="translate(68.357961, 437.183148) rotate(180.000000) translate(-68.357961, -437.183148) "></path>
            <path d="M68.3636364,186.93937 C79.6010946,186.93937 88.7159218,196.054197 88.7159218,207.291655 C88.7159218,218.540464 79.6010946,227.64394 68.3636364,227.64394 C57.1148272,227.64394 48,218.540464 48,207.291655 C48,196.054197 57.1148272,186.93937 68.3636364,186.93937" id="Wheel-Front-Left" fill="#B0B0B0" transform="translate(68.357961, 207.291655) rotate(180.000000) translate(-68.357961, -207.291655) "></path>
            <path d="M149.716023,168.866759 C149.886288,169.752135 149.965744,170.626159 149.965744,171.500184 C149.965744,177.368634 146.322084,182.760344 140.6466,184.860273 L128.024324,189.513035 C124.369312,190.864935 120.305665,190.479002 116.968481,188.481232 L112.064863,185.52998 C112.950238,185.223504 113.835614,184.905677 114.709638,184.576499 C115.685821,184.213268 116.662005,183.827335 117.615486,183.430051 C117.956015,183.29384 118.296544,183.146277 118.637073,182.998714 C119.250025,182.737642 119.862978,182.47657 120.464579,182.204147 C120.691598,182.101988 120.929969,181.999829 121.156988,181.88632 C121.849397,181.567357 122.541806,181.238179 123.222864,180.898785 C123.699605,180.670631 124.176345,180.432261 124.641735,180.183674 C125.220634,179.8999 125.788183,179.604775 126.355731,179.286948 C126.764366,179.07128 127.173001,178.84426 127.581636,178.60589 C127.808655,178.491245 128.035674,178.36752 128.262694,178.219957 C128.739434,177.958885 129.216175,177.686461 129.681565,177.391336 C130.271815,177.050807 130.850715,176.697792 131.418263,176.324345 C131.792845,176.097326 132.156076,175.870307 132.519307,175.620585 C132.893889,175.393566 133.245769,175.143845 133.609,174.882772 C133.904125,174.701157 134.187899,174.50819 134.483024,174.303873 L146.015608,167.220869 C147.479882,166.324143 149.398196,167.175465 149.716023,168.866759" id="Headlight-Left" stroke="#C9C9C9" fill="#FFFFFF" stroke-linejoin="round" transform="translate(131.015304, 178.584066) rotate(180.000000) translate(-131.015304, -178.584066) "></path>
            <path d="M142.122226,243.12632 L142.122226,327.736435 L118.795987,300.481626 C115.038816,296.089936 112.97294,290.504125 112.97294,284.716266 L112.97294,243.12632 L142.122226,243.12632 Z" id="Window-Front-Left" stroke="#C9C9C9" fill="#E5E5E5" stroke-linejoin="round" transform="translate(127.547583, 285.431377) rotate(180.000000) translate(-127.547583, -285.431377) "></path>
            <path d="M115.175141,238.177185 C115.107036,238.210102 115.050281,238.24529 114.982175,238.290694 L115.027579,238.052324 L115.129738,238.177185 L115.175141,238.177185 Z" id="Fill-41" stroke="#C9C9C9" fill="#FFFFFF" stroke-linejoin="round" transform="translate(115.078658, 238.171509) rotate(180.000000) translate(-115.078658, -238.171509) "></path>
            <path d="M211.533281,221.299355 L211.487877,221.537725 C185.267141,236.430195 148.569462,241.470025 115.12951,236.725321 C148.569462,241.322462 185.244439,236.13507 211.397069,221.140442 L211.533281,221.299355 Z" id="Fill-43" stroke="#C9C9C9" fill="#FFFFFF" stroke-linejoin="round" transform="translate(163.331396, 229.795195) rotate(180.000000) translate(-163.331396, -229.795195) "></path>
            <path d="M170.855418,482.909352 C172.955347,483.386093 174.1699,485.587046 173.46614,487.618869 L172.716976,489.765337 L171.422966,493.511156 C157.665593,488.357817 140.514281,485.247652 122.670559,484.203363 L122.68191,484.010396 C130.877309,478.163513 141.183988,476.110122 151.002575,478.356479 L170.855418,482.909352 Z" id="Tail-Light-Left" stroke="#C9C9C9" fill="#E5E5E5" stroke-linejoin="round" transform="translate(148.168619, 485.489104) rotate(180.000000) translate(-148.168619, -485.489104) "></path>
            <path d="M229.104692,221.505664 C229.717645,224.797445 230.886794,227.975716 232.566738,230.882698 C232.657545,231.075665 232.771055,231.25728 232.884565,231.437761 C233.781291,233.004194 234.82558,234.491171 236.006081,235.88734 L259.967974,264.129683 C233.815344,279.124312 197.140367,284.310569 163.700416,279.713427 C163.677714,279.713427 163.666363,279.713427 163.643661,279.703211 C145.913449,277.17081 129.102665,271.893745 115.265836,263.867476 L132.848485,243.333575 L139.647715,235.456003 C143.166515,231.381006 145.516165,226.466037 146.492348,221.245727 C152.996453,224.86555 160.635654,227.453571 168.762947,228.998438 C169.568866,229.167567 170.374785,229.303779 171.192054,229.43999 C172.020675,229.587553 172.849296,229.712414 173.689267,229.825923 C192.872403,232.60691 213.996554,229.838409 229.104692,221.505664" id="Windshield" stroke="#C9C9C9" fill="#E5E5E5" stroke-linejoin="round" transform="translate(187.616905, 251.289475) rotate(180.000000) translate(-187.616905, -251.289475) "></path>
            <path d="M125.163539,407.943679 C159.647779,395.037629 215.494541,395.026278 249.978782,407.943679 L228.480049,445.731051 C205.891623,432.790948 169.262049,432.790948 146.662272,445.731051 L125.163539,407.95503 L125.163539,407.943679 Z" id="Rear-Window" stroke="#C9C9C9" fill="#E5E5E5" stroke-linejoin="round" transform="translate(187.571160, 421.995468) rotate(180.000000) translate(-187.571160, -421.995468) "></path>
            <polygon id="Quarter-Glass-Right" stroke="#C9C9C9" fill="#E5E5E5" stroke-linejoin="round" transform="translate(245.521787, 413.487027) rotate(-180.000000) translate(-245.521787, -413.487027) " points="258.043573 428.974054 238.399562 398 233 408.5732"></polygon>
            <polygon id="Quarter-Glass-Left" stroke="#C9C9C9" fill="#E5E5E5" stroke-linejoin="round" transform="translate(129.521787, 413.487027) scale(-1, 1) rotate(-180.000000) translate(-129.521787, -413.487027) " points="142.043573 428.974054 122.399562 398 117 408.5732"></polygon>
            <path d="M252.449514,484.20319 C234.605792,485.247479 217.45448,488.357645 203.697107,493.510984 L202.357693,489.640304 L201.653933,487.619832 C200.950173,485.588008 202.164726,483.385921 204.264655,482.90918 L224.117498,478.357442 C233.936085,476.10995 244.242764,478.164475 252.438163,484.010224 L252.449514,484.20319 Z" id="Tail-Light-Right" stroke="#C9C9C9" fill="#E5E5E5" stroke-linejoin="round" transform="translate(226.951454, 485.489245) rotate(180.000000) translate(-226.951454, -485.489245) "></path>
            <path d="M262.158711,243.12632 L262.158711,284.716266 C262.158711,290.504125 260.092835,296.089936 256.324313,300.481626 L233.009425,327.736435 L233.009425,243.12632 L262.158711,243.12632 Z" id="Window-Front-Right" stroke="#C9C9C9" fill="#E5E5E5" stroke-linejoin="round" transform="translate(247.584068, 285.431377) rotate(180.000000) translate(-247.584068, -285.431377) "></path>
            <polygon id="Window-Back-Right" stroke="#C9C9C9" fill="#E5E5E5" stroke-linejoin="round" transform="translate(247.584068, 373.446782) rotate(180.000000) translate(-247.584068, -373.446782) " points="262.158711 359.519145 262.158711 410.076356 233.009425 410.076356 233.009425 336.817209"></polygon>
            <path d="M262.884946,185.57529 L258.049433,188.482272 C254.712249,190.478908 250.648602,190.864841 246.993591,189.514075 L234.371314,184.860179 C228.695831,182.761385 225.05217,177.369675 225.05217,171.501224 C225.05217,170.626065 225.131627,169.753175 225.301891,168.866665 C225.619718,167.175371 227.538032,166.324048 229.002307,167.220775 L240.273818,174.144865 L240.53489,174.303778 C247.277365,179.003079 254.859811,182.737548 262.953052,185.529886 L262.884946,185.57529 Z" id="Headlight-Right" stroke="#C9C9C9" fill="#FFFFFF" stroke-linejoin="round" transform="translate(244.002611, 178.584132) rotate(180.000000) translate(-244.002611, -178.584132) "></path>
            <path d="M306.779139,416.830862 C318.027948,416.830862 327.131424,425.935474 327.131424,437.184283 C327.131424,448.420606 318.027948,457.535433 306.779139,457.535433 C295.54168,457.535433 286.426853,448.420606 286.426853,437.184283 C286.426853,425.935474 295.54168,416.830862 306.779139,416.830862" id="Wheel-Back-Right" fill="#B0B0B0" transform="translate(306.779139, 437.183148) rotate(180.000000) translate(-306.779139, -437.183148) "></path>
            <path d="M306.779139,186.93937 C318.027948,186.93937 327.131424,196.054197 327.131424,207.291655 C327.131424,218.540464 318.027948,227.64394 306.779139,227.64394 C295.54168,227.64394 286.426853,218.540464 286.426853,207.291655 C286.426853,196.054197 295.54168,186.93937 306.779139,186.93937" id="Wheel-Front-Right" fill="#B0B0B0" transform="translate(306.779139, 207.291655) rotate(180.000000) translate(-306.779139, -207.291655) "></path>
        </g>
    </g>
</svg>